<svg width="22" height="18" viewBox="0 0 22 18" fill="none" xmlns="http://www.w3.org/2000/svg">
<g id="twitter-logo">
<path id="Path" d="M20.4175 2.86772C19.6954 3.18447 18.926 3.39442 18.1238 3.49636C18.949 3.00364 19.5789 2.22937 19.875 1.29612C19.1056 1.75485 18.2561 2.07888 17.3507 2.25971C16.6201 1.4818 15.5789 1 14.443 1C12.2391 1 10.4648 2.78883 10.4648 4.9818C10.4648 5.29733 10.4915 5.60073 10.557 5.88956C7.24757 5.72816 4.31917 4.14199 2.35194 1.72573C2.0085 2.3216 1.80704 3.00364 1.80704 3.73786C1.80704 5.1165 2.51699 6.33859 3.57524 7.04612C2.93568 7.03398 2.30825 6.8483 1.7767 6.55583C1.7767 6.56796 1.7767 6.58374 1.7767 6.59951C1.7767 8.53398 3.15655 10.1408 4.96602 10.5109C4.64199 10.5995 4.28884 10.642 3.92233 10.642C3.66748 10.642 3.41019 10.6274 3.16869 10.574C3.68447 12.1505 5.14806 13.3095 6.88835 13.3471C5.53398 14.4066 3.81432 15.0449 1.95267 15.0449C1.62621 15.0449 1.31311 15.0303 1 14.9903C2.76335 16.1274 4.85316 16.7767 7.1068 16.7767C14.432 16.7767 18.4369 10.7087 18.4369 5.44903C18.4369 5.27306 18.4308 5.10316 18.4223 4.93447C19.2124 4.37379 19.8762 3.67354 20.4175 2.86772Z" fill="#10182F" stroke="black"/>
</g>
</svg>
